<svg version="1.1" id="keedev-icon" xmlns="http://www.w3.org/2000/svg" xmlns:xlink="http://www.w3.org/1999/xlink" x="0px" y="0px"
	 width="25px" height="25px" viewBox="0 0 501 501" enable-background="new 0 0 501 501" xml:space="preserve">
<path fill="rgba(240,245,250,0.6)" d="M250.5,0.5c-138.08,0-250,111.93-250,250s111.92,250,250,250c138.07,0,250-111.93,250-250
	S388.57,0.5,250.5,0.5z M250.5,461.32c-116.44,0-210.83-94.39-210.83-210.82c0-116.44,94.39-210.83,210.83-210.83
	c116.43,0,210.82,94.39,210.82,210.83C461.32,366.93,366.93,461.32,250.5,461.32z"/>
<path fill="rgba(240,245,250,0.6)" d="M250.5,90.497c-88.366,0-160.002,71.635-160.002,160.002S162.134,410.5,250.5,410.5
	s160.002-71.635,160.002-160.002S338.866,90.497,250.5,90.497z M287.048,353.9l-47.385-74.219l-22.933,23.59V353.9h-59v-200h59
	v78.858l68.328-78.858h68.238l-72.503,81.092L357.846,353.9H287.048z"/>
</svg>
